<svg width="19" height="18" viewBox="0 0 19 18" fill="none" xmlns="http://www.w3.org/2000/svg">
<path d="M11.75 3.75004L14.75 6.75004M16.3805 5.10904C16.777 4.71261 16.9999 4.17489 16.9999 3.61418C17 3.05347 16.7773 2.5157 16.3809 2.11917C15.9845 1.72263 15.4467 1.49983 14.886 1.49976C14.3253 1.49969 13.7875 1.72236 13.391 2.11879L3.38151 12.1305C3.20738 12.3042 3.0786 12.5179 3.00651 12.753L2.01576 16.017C1.99638 16.0819 1.99491 16.1508 2.01153 16.2164C2.02814 16.2821 2.0622 16.342 2.11011 16.3898C2.15802 16.4376 2.21798 16.4716 2.28363 16.4881C2.34928 16.5046 2.41818 16.503 2.48301 16.4835L5.74776 15.4935C5.98264 15.4221 6.19639 15.2941 6.37026 15.1208L16.3805 5.10904Z" stroke="white" stroke-width="2" stroke-linecap="round" stroke-linejoin="round"/>
</svg>
