<svg width="108" height="107" viewBox="0 0 108 107" fill="none" xmlns="http://www.w3.org/2000/svg">
<path d="M85.2501 95.1667C85.2501 86.8787 81.9577 78.9301 76.0972 73.0696C70.2367 67.2091 62.2881 63.9167 54.0001 63.9167M54.0001 63.9167C45.7121 63.9167 37.7635 67.2091 31.903 73.0696C26.0425 78.9301 22.7501 86.8787 22.7501 95.1667M54.0001 63.9167C65.506 63.9167 74.8334 54.5893 74.8334 43.0833C74.8334 31.5774 65.506 22.25 54.0001 22.25C42.4941 22.25 33.1667 31.5774 33.1667 43.0833C33.1667 54.5893 42.4941 63.9167 54.0001 63.9167ZM106.083 53.5C106.083 82.2648 82.7649 105.583 54.0001 105.583C25.2352 105.583 1.91675 82.2648 1.91675 53.5C1.91675 24.7352 25.2352 1.41667 54.0001 1.41667C82.7649 1.41667 106.083 24.7352 106.083 53.5Z" stroke="black" stroke-opacity="0.25" stroke-width="2" stroke-linecap="round" stroke-linejoin="round"/>
</svg>
