<svg width="53" height="53" viewBox="0 0 53 53" fill="none" xmlns="http://www.w3.org/2000/svg">
<path d="M10 10H13.3474L17.7994 30.7872C17.9627 31.5484 18.3863 32.229 18.9972 32.7117C19.6082 33.1943 20.3683 33.4489 21.1467 33.4316H37.5154C38.2772 33.4303 39.0158 33.1693 39.6092 32.6915C40.2026 32.2138 40.6153 31.5479 40.779 30.8039L43.5406 18.3684H15.1382M21.6321 41.7163C21.6321 42.6407 20.8828 43.39 19.9584 43.39C19.0341 43.39 18.2847 42.6407 18.2847 41.7163C18.2847 40.792 19.0341 40.0426 19.9584 40.0426C20.8828 40.0426 21.6321 40.792 21.6321 41.7163ZM40.0426 41.7163C40.0426 42.6407 39.2933 43.39 38.3689 43.39C37.4446 43.39 36.6953 42.6407 36.6953 41.7163C36.6953 40.792 37.4446 40.0426 38.3689 40.0426C39.2933 40.0426 40.0426 40.792 40.0426 41.7163Z" stroke="#F9F9F9" stroke-width="2" stroke-linecap="round" stroke-linejoin="round"/>
</svg>
